<svg xmlns="http://www.w3.org/2000/svg" viewBox="0 0 24 24" role="img" aria-label="TikTok">
  <circle cx="12" cy="12" r="12" fill="#111"/>
  <path fill="#25F4EE" d="M10.4 10.2v-.9a7.2 7.2 0 0 0-1-.1 5.2 5.2 0 1 0 5.2 5.2V8.7a5.9 5.9 0 0 0 3.5 1.1V7.2a3.3 3.3 0 0 1-3.3-3.3h-2.5v10.6a2.7 2.7 0 1 1-2-2.6Z"/>
  <path fill="#FE2C55" d="M11.3 10.1v-.7a5.2 5.2 0 1 0 4.2 5.1V9.3a6 6 0 0 0 3.5 1.1V7.8a3.7 3.7 0 0 1-.9-.1v2.1a5.9 5.9 0 0 1-3.5-1.1v5.8a5.2 5.2 0 0 1-8.9 3.7 5.2 5.2 0 0 0 9-3.5V4.9h-2.4v9.6a2.7 2.7 0 0 1-5.3.8 2.7 2.7 0 0 0 4.3-2.1v-3.1Z"/>
  <path fill="#fff" d="M14.6 8.7a5.9 5.9 0 0 0 3.5 1.1V7.7a3.3 3.3 0 0 1-2.6-3.2h-2.3v9.9a2.7 2.7 0 1 1-2.8-2.7v-2.5a5.2 5.2 0 1 0 4.2 5.1V8.7Z"/>
</svg>
