<svg xmlns="http://www.w3.org/2000/svg" width="900" height="420" viewBox="0 0 900 420">
<rect width="100%" height="100%" fill="#111111"/>
<text x="40" y="40" fill="#ffffff" font-size="28" font-family="Arial, Helvetica, sans-serif" font-weight="700">MLB Statcast Snapshot | 2026-04-21</text>
<text x="40" y="66" fill="#cccccc" font-size="15" font-family="Arial, Helvetica, sans-serif">Static newsroom graphic generated by Global Sports Report</text>
<text x="40" y="100" fill="#f2f2f2" font-size="20" font-family="Arial, Helvetica, sans-serif">Avg Exit Velo</text>
<rect x="240" y="80" width="520" height="24" rx="4" ry="4" fill="#2a2a2a"/>
<rect x="240" y="80" width="355.3" height="24" rx="4" ry="4" fill="#cfcfcf"/>
<text x="780" y="99" fill="#ffffff" font-size="18" font-family="Arial, Helvetica, sans-serif">82.0</text>
<text x="40" y="160" fill="#f2f2f2" font-size="20" font-family="Arial, Helvetica, sans-serif">Max Exit Velo</text>
<rect x="240" y="140" width="520" height="24" rx="4" ry="4" fill="#2a2a2a"/>
<rect x="240" y="140" width="477.2" height="24" rx="4" ry="4" fill="#cfcfcf"/>
<text x="780" y="159" fill="#ffffff" font-size="18" font-family="Arial, Helvetica, sans-serif">114.7</text>
<text x="40" y="220" fill="#f2f2f2" font-size="20" font-family="Arial, Helvetica, sans-serif">Avg Launch Angle</text>
<rect x="240" y="200" width="520" height="24" rx="4" ry="4" fill="#2a2a2a"/>
<rect x="240" y="200" width="194.1" height="24" rx="4" ry="4" fill="#cfcfcf"/>
<text x="780" y="219" fill="#ffffff" font-size="18" font-family="Arial, Helvetica, sans-serif">16.8</text>
<text x="40" y="280" fill="#f2f2f2" font-size="20" font-family="Arial, Helvetica, sans-serif">Hard-Hit Rate</text>
<rect x="240" y="260" width="520" height="24" rx="4" ry="4" fill="#2a2a2a"/>
<rect x="240" y="260" width="123.2" height="24" rx="4" ry="4" fill="#cfcfcf"/>
<text x="780" y="279" fill="#ffffff" font-size="18" font-family="Arial, Helvetica, sans-serif">23.7</text>
<text x="40" y="375" fill="#bbbbbb" font-size="14" font-family="Arial, Helvetica, sans-serif">League-wide snapshot built from Statcast batted-ball data for 2026-04-21.</text>
<text x="40" y="400" fill="#888888" font-size="13" font-family="Arial, Helvetica, sans-serif">This report is an automated summary intended to support, not replace, human sports journalism.</text>
</svg>